<?xml version="1.0" encoding="utf-8"?>
<!-- Generator: Adobe Illustrator 19.2.1, SVG Export Plug-In . SVG Version: 6.00 Build 0)  -->
<svg version="1.1" id="Layer_1" xmlns="http://www.w3.org/2000/svg" xmlns:xlink="http://www.w3.org/1999/xlink" x="0px" y="0px"
	 viewBox="0 0 525.7 184.4" style="enable-background:new 0 0 525.7 184.4;" xml:space="preserve">
<style type="text/css">
	.st0{fill:#DA291C;}
	.st1{fill:#F4F4F4;}
	.st2{fill:#FFFFFF;}
	.st3{fill:#010101;}
	.st4{fill:none;stroke:#DA291C;stroke-width:18;stroke-miterlimit:10;}
	.st5{fill:none;stroke:#DA291C;stroke-width:15;stroke-miterlimit:10;}
	.st6{fill:none;stroke:#DA291C;stroke-width:22.7727;stroke-miterlimit:10;}
</style>
<g>
	<g>
		<g>
			<g>
				<g>
					<path d="M78.1,77.8l23.5,70.7l23.9-70.7H155L117.5,182H83.7L45.5,77.8H78.1z"/>
				</g>
				<g>
					<path d="M226.4,181.9c-1-6.4-1-11.1-1-14.2c-11.5,16.7-25.4,16.7-31.1,16.7c-15.1,0-21.9-4.3-26-8.2
						c-6.2-6.2-9.1-14.6-9.1-22.9c0-8.2,2.9-23.5,22.1-32.4c12.8-5.8,31.1-5.8,41.2-5.8c0-6.8-0.2-10.1-1.4-13.8
						c-2.7-7.6-10.7-8.7-13.6-8.7c-4.3,0-8.9,1.9-11.5,5.8c-2.3,3.5-2.3,6.8-2.3,9.3h-29.9c0.2-5.6,0.8-16.7,11.8-24.5
						c9.5-6.8,21.7-8.5,31.6-8.5c8.7,0,26.8,1.4,37.1,13.4c7,8.5,7.2,20.8,7.2,25.6l0.2,41.9c0,8.9,0.6,17.7,2.5,26.4L226.4,181.9
						L226.4,181.9z M188.8,149.7c0,7,4.7,14.8,14.8,14.8c5.6,0,10.1-2.7,13-6c5.4-6.6,5.8-14.6,5.8-25.8
						C202.8,131.2,188.8,137.4,188.8,149.7z"/>
				</g>
				<g>
					<path d="M270.2,96.3c0-0.4,0-11.8-0.6-19h29.3l0.8,15.7c2.9-4.7,11.1-18.1,33.8-18.1c20.4,0,29.1,12.4,31.8,19.6
						c2.3,6.4,2.9,11.8,2.9,31.1v56.3h-31.1v-64.8c0-4.3,0-8-1.7-11.3c-2.3-4.5-7-8.9-14.8-8.9c-6.6,0-12.6,3.1-15.9,8
						c-1.9,2.7-3.7,7.8-3.7,15.9v61h-30.7L270.2,96.3L270.2,96.3z"/>
				</g>
			</g>
			<g>
				<g>
					<path d="M401.5,59.6v18.8h-20v20.2h20v57.1c0,8.7,0,28,30.7,28c4.9,0,13.8-0.6,23.7-3.3v-20c-3.7,0.4-5.8,0.6-10.3,0.6
						c-13.6,0-13.6-6-13.8-15.5v-47h24.7V78.3h-24.7V51.2L401.5,59.6z"/>
				</g>
			</g>
			<g>
				<path d="M0.2,77.6h30.5V182H0.2V77.6z"/>
			</g>
		</g>
	</g>
	<g>
		<g>
			<path d="M474.9,77.6h30.5V182h-30.5V77.6z"/>
		</g>
	</g>
</g>
<g>
	<polygon class="st0" points="505.4,20.3 505.4,50.8 525.7,50.8 525.7,0 474.9,0 474.9,20.3 	"/>
	<rect x="474.9" y="30.5" class="st0" width="20.3" height="20.3"/>
</g>
<rect y="19.9" class="st0" width="30.5" height="30.5"/>
</svg>
