<svg id="Layer_1" data-name="Layer 1" xmlns="http://www.w3.org/2000/svg" viewBox="0 0 541.36 541.36"><defs><style>.cls-1{fill:#fff;}.cls-2{fill:#018543;}.cls-3{fill:#c75b12;stroke:#c75b12;stroke-miterlimit:10;}</style></defs><title>UTD_emblem_2c_flame_eco</title><circle class="cls-1" cx="270.38" cy="271.46" r="265.16"/><path class="cls-2" d="M287.75,28.67A259,259,0,0,1,388.52,526.15,259,259,0,0,1,187,49,257.28,257.28,0,0,1,287.75,28.67m0-11.77C138.26,16.9,17.07,138.09,17.07,287.58S138.26,558.26,287.75,558.26,558.43,437.07,558.43,287.58,437.24,16.9,287.75,16.9Z" transform="translate(-17.07 -16.9)"/><path class="cls-3" d="M511,275.25a13.84,13.84,0,0,0-.33,3.2,8.07,8.07,0,0,0,.57,2.83l10.33-3.42v0Z" transform="translate(-17.07 -16.9)"/><path class="cls-3" d="M419.81,107.54a13.76,13.76,0,0,0,2.26,2.28,8,8,0,0,0,2.55,1.35L428.51,101l0,0Z" transform="translate(-17.07 -16.9)"/><path class="cls-3" d="M513.63,253.26c5.35-.94,7.32-4.51,6.61-8.54-.12-.69-.32-1.62-.47-2.26l-15.92,2.8a18.35,18.35,0,0,0,.27,2.22C504.9,251.9,508.21,254.21,513.63,253.26Z" transform="translate(-17.07 -16.9)"/><path class="cls-3" d="M479.87,173.36l7.33-8.06,0,0-10.46,3a13.86,13.86,0,0,0,1.28,2.95A7.93,7.93,0,0,0,479.87,173.36Z" transform="translate(-17.07 -16.9)"/><path class="cls-3" d="M256.32,71.18c3.88-.57,5.75-4,4.94-9.46-.89-6-4.14-8-7.44-7.52s-5.76,3.67-4.93,9.3S252.6,71.72,256.32,71.18Z" transform="translate(-17.07 -16.9)"/><path class="cls-3" d="M497.56,363.54a8.05,8.05,0,0,0-.55,2.83l10.88.75v0l-8.83-6.37A13.83,13.83,0,0,0,497.56,363.54Z" transform="translate(-17.07 -16.9)"/><path class="cls-3" d="M105.41,139.37c-.55.67-1,1.33-1.35,1.77l6.27,5.13c.58-.59,1.14-1.2,1.63-1.81,2.77-3.38,3-5.77.77-7.63C110.63,135.11,108.31,135.83,105.41,139.37Z" transform="translate(-17.07 -16.9)"/><path class="cls-3" d="M383.89,484.61c-3,1.48-4.38,3.45-3.31,5.64s3.23,2.12,6.09.73a12.18,12.18,0,0,0,4.45-3.48C389.65,484.48,387.08,483.06,383.89,484.61Z" transform="translate(-17.07 -16.9)"/><path class="cls-3" d="M288.54,37.16c-138.3,0-250.42,112.12-250.42,250.42S150.24,538,288.54,538,539,425.88,539,287.58,426.85,37.16,288.54,37.16ZM528,272.35l.84,0,.44,10.93-.84,0a.89.89,0,0,0-1-1,6,6,0,0,0-1.81.57l-20.11,8.19c-1.54.64-1.76,1-1.72,2l-.84,0-.46-11.22.84,0c0,1.07.49,1.59,1.21,1.56a4,4,0,0,0,.94-.29l.64-.23a15.4,15.4,0,0,1-.79-4.43,15.89,15.89,0,0,1,.43-4.4l-.74-.26a2.44,2.44,0,0,0-1-.21c-.76,0-1,.58-1,1.44l-.84,0-.44-10.68.84,0c0,1,.21,1.36,1.79,1.87l21.22,6.81a6.63,6.63,0,0,0,1.46.27A.86.86,0,0,0,528,272.35Zm-5.5-39.6.83-.15c.55,2,1.36,5.54,2.11,9.81,1.92,10.93-2.59,17-10.41,18.42-8.24,1.45-14.62-2.2-16.76-14.31-.62-3.53-1.16-7.46-1.29-9.28l.83-.15c.19,1.1.85,1.53,2.43,1.25l20.66-3.64A1.74,1.74,0,0,0,522.52,232.76Zm-18.7-53.51,8,17.61a6.33,6.33,0,0,0,.91,1.44l-5.66,4.25-.78-.87a2,2,0,0,0,.73-2.37l-2.66-5.82-16.63,7.56c-1.46.66-1.85,1.39-1.39,2.4l-.77.35-4.44-9.72.77-.35c.46,1,1.27,1.23,2.74.57l16.63-7.56L498.7,181a2.15,2.15,0,0,0-2.32-1.12l-.17-1.19,6.93-1.47A6.82,6.82,0,0,0,503.82,179.25Zm-37.25-15.63,21.82-4.49a6.43,6.43,0,0,0,1.41-.48.86.86,0,0,0,.32-1.31l.72-.44,5.74,9.32-.72.44a.88.88,0,0,0-1.37-.32,6,6,0,0,0-1.3,1.38l-13.52,17c-1,1.31-1,1.75-.51,2.59l-.72.44-5.89-9.56.72-.44c.56.91,1.2,1.15,1.82.77a4,4,0,0,0,.68-.71l.44-.52a15.3,15.3,0,0,1-2.86-3.47,15.86,15.86,0,0,1-1.78-4l-.77.14a2.49,2.49,0,0,0-.94.29c-.65.4-.63,1-.18,1.76l-.72.44-5.61-9.1.72-.44C464.63,163.75,464.93,164,466.57,163.63Zm-25.81-33.25c2.51,2.46,4.17,2.64,5.16,1.63.72-.74.64-1.78-1.82-7.46-2.12-4.8-2.17-8.11.21-10.54,3.43-3.49,8.83-3.23,14.29,2.11,1.42,1.39,2.82,3.67,3.62,4.45a3.93,3.93,0,0,0,1.22.88l-4.84,6.18-1-.68a3.56,3.56,0,0,0,.25-2.38c-.28-1.13-.87-2.3-2.91-4.29-2.24-2.2-3.82-2.24-4.54-1.5s-.4,2.12,1.65,6.75c1.83,4.15,2.69,8-.44,11.24-3.53,3.6-8.32,3.95-14-1.57-1.86-1.82-3.84-5-4.75-5.89a4.1,4.1,0,0,0-1.28-.88l5-7.32,1.33.71a5.83,5.83,0,0,0-.64,2.48C437.42,126,438.1,127.78,440.76,130.38ZM319.18,450.83l1.32,5.42H256.13l1.32-5.42c6.32,0,11.74-4.22,11.74-14.75V167.16h-98.9c-10.24,0-16,4.21-18.37,10.24l-6.62-1.81,9.64-41.25c2.41.9,7.83,1.51,16,1.51H408.74c4.52,0,10.84-.6,13.25-1.51l9.64,41.25L425,177.4c-3.31-6.62-7.53-10.24-18.07-10.24h-99.2V436.07C307.73,446.91,312.55,450.83,319.18,450.83ZM181.91,118.91a201.55,201.55,0,0,1,215.84,0l-1.39,2.18a199,199,0,0,0-213.07,0ZM428.32,92.51l.51-.67,8.73,6.58-.51.67a.88.88,0,0,0-1.39.2,6.16,6.16,0,0,0-.71,1.77l-6.39,20.79c-.48,1.6-.32,2,.47,2.6l-.51.67-9-6.75.5-.67c.86.64,1.54.63,2,.05a4.3,4.3,0,0,0,.38-.91l.23-.64a15.32,15.32,0,0,1-3.93-2.19,15.86,15.86,0,0,1-3.13-3.12l-.67.41a2.5,2.5,0,0,0-.77.61c-.46.61-.21,1.18.48,1.7l-.51.67-8.53-6.43.51-.67c.82.62,1.18.7,2.58-.21l18.68-12.16a6.58,6.58,0,0,0,1.14-1A.86.86,0,0,0,428.32,92.51ZM390.38,68.88l10.31,5.57-.4.74a.93.93,0,0,0-1.42.36,2.48,2.48,0,0,0-.13,1l.5,6.1,0,0,5.25-2.77a2,2,0,0,0,.82-.82,1,1,0,0,0-.45-1.42l.4-.74,10.27,5.55-.4.74c-1-.53-1.76-.3-3.52.53l-11.32,5.49L402,102.2c.2,1.63.29,2.59,1.27,3.12l-.4.74-10.35-5.59.4-.74c.69.37,1.23.32,1.47-.12a2.47,2.47,0,0,0,.2-1.41L394,92.07,394,92l-5.45,2.88a2.39,2.39,0,0,0-1,1c-.27.51.05.94.67,1.27l-.4.74-10.13-5.47.4-.74c1,.53,1.45.26,3.31-.65L393,85.45l-1.69-12.92c-.25-1.79-.31-2.38-1.29-2.91Zm-34,12.51L363.9,61.6a1.79,1.79,0,0,0-.84-2.45l.29-.75,16.91,6.38a18.06,18.06,0,0,0,2.3.58l-1.05,6.88-.9-.06A2.42,2.42,0,0,0,378.65,70l-8.72-3.29L368.29,71l8,3c.85.32,1.42.21,1.72-.58l.89.33L376.11,81l-.89-.34c.28-.75-.07-1.21-.92-1.53l-8-3-2,5.37,8.84,3.34a2.43,2.43,0,0,0,3.1-.63l.82.64-4.16,6.24a10.65,10.65,0,0,0-2.4-1.36l-16.64-6.28.3-.79C355.22,83.06,356,82.6,356.42,81.39ZM332.06,50.28a6.72,6.72,0,0,0,2,.7l18.85,4.39a6.39,6.39,0,0,0,1.7.16l-.08,7.08-1.16.08a2,2,0,0,0-1.44-2l-6.23-1.45L341.56,77c-.36,1.56,0,2.31,1.06,2.56l-.19.82L332,78l.19-.82c1.09.25,1.76-.26,2.12-1.82l4.14-17.78-6.11-1.42a2.15,2.15,0,0,0-2.3,1.15l-1-.6ZM293.19,46.7a11.05,11.05,0,0,0,2.3-.31l1.6,6.78-.9.28c-.64-1-1.09-1.4-2.21-1.38l-9.73.17.09,5.32,8.41-.14c1,0,1.48-.37,1.46-1.21h.95l.13,7.8-.91,0c0-.81-.64-1.14-1.55-1.12l-8.41.14.12,7.76c0,1.38.57,2,1.68,2v.84l-10.72.18v-.84c1,0,1.64-.56,1.62-2l-.34-21.19a1.71,1.71,0,0,0-1.68-1.88V47ZM253,48.56c7.71-1.14,14.6,3.14,15.9,12,1.2,8.13-3,14.92-11.75,16.21s-14.69-4.1-15.88-12.15C240,55.73,245.35,49.69,253,48.56Zm-61.9,18.76.33.77a1.3,1.3,0,0,0-.82,1.64,2.66,2.66,0,0,0,.6.78l7.55,6.92.08,0,.3-10.37a2.35,2.35,0,0,0-.16-1c-.24-.56-.84-.81-1.64-.47l-.33-.77,9.7-4.16.33.77c-.68.29-.92.69-1.12,2.73l-1.63,17.52,2.18,5.06c.62,1.44,1.27,1.7,2.29,1.26l.33.77L199.31,93l-.33-.77c1-.44,1.3-1.06.66-2.53l-2.16-5L183.71,73.75c-1.76-1.37-2.1-1.43-2.85-1.11l-.33-.77Zm-36,19.61,16.53-10.11A6.3,6.3,0,0,0,173,75.74l4.92,5.1-.77.88a2,2,0,0,0-2.45-.43l-5.46,3.34,9.54,15.58c.84,1.37,1.6,1.66,2.55,1.08l.44.72-9.13,5.58-.44-.72c1-.58,1.07-1.42.23-2.79l-9.54-15.58-5.36,3.28a2.15,2.15,0,0,0-.83,2.43l-1.16.31-2.31-6.7A6.85,6.85,0,0,0,155.14,86.93Zm-8.84,6.33.51.67c-.79.6-1,1.4,0,2.67l12.69,16.48c1,1.24,1.76,1.4,2.64.72l.51.66L154.1,121l-.51-.67c.85-.65,1-1.46,0-2.73L140.77,101a1.72,1.72,0,0,0-2.48-.51l-.51-.67Zm-21.9,17.2c1.45-1.36,3.79-2.66,4.6-3.43a4,4,0,0,0,.93-1.18l6,5.1-.72,1a3.58,3.58,0,0,0-2.36-.35c-1.14.23-2.33.77-4.41,2.72-2.29,2.15-2.4,3.72-1.69,4.47s2.1.49,6.81-1.36c4.22-1.66,8.15-2.35,11.21.91,3.45,3.68,3.59,8.48-2.16,13.88-1.9,1.78-5.15,3.63-6.09,4.5a4.06,4.06,0,0,0-.93,1.24l-7.1-5.35.77-1.3a5.8,5.8,0,0,0,2.45.74c1.69,0,3.5-.61,6.22-3.15,2.56-2.4,2.82-4.06,1.85-5.09-.7-.75-1.75-.72-7.53,1.51-4.89,1.91-8.2,1.82-10.53-.66C118.33,121.08,118.82,115.69,124.4,110.46ZM66.94,193.28l.77.34c-.42.94-.49,1.68.38,2.06a4.57,4.57,0,0,0,1,.23l15.65,1.41,0-.07L73.08,186.79a3.73,3.73,0,0,0-.86-.6c-.8-.36-1.33.27-1.66,1l-.77-.34,4.57-10.33.77.34c-.45,1-.06,1.55,1.11,2.79l15.13,15.89a4.92,4.92,0,0,0,1.37,1.15.87.87,0,0,0,1.24-.44l.77.34-4.14,9.36-.77-.34a.87.87,0,0,0-.49-1.25,4.42,4.42,0,0,0-1.85-.27l-22.12-.58c-1.68-.07-2,0-2.5,1l-.77-.34Zm-6.77,17.78.8.25c-.29.95,0,1.72,1.52,2.2l19.85,6.15c1.5.46,2.24.13,2.57-.93l.8.25-3.17,10.24-.8-.25c.32-1-.06-1.74-1.59-2.22l-20-6.21a1.71,1.71,0,0,0-2.31,1l-.8-.25Zm-8.73,34.5a6.25,6.25,0,0,0,2.62-.68l12.14-5.16,0-.16-10.44-2c-1.43-.27-2,.12-2.22,1.26l-.83-.16L54.58,229l.83.16c-.21,1.09.19,1.67,1.76,2l23.39,4.46-1.21,6.37a5.63,5.63,0,0,0-2.54.48l-16.35,7,0,.16,13.89,2.65c1.54.29,2.23-.08,2.44-1.17l.83.16-1.83,9.65-.83-.16c.21-1.09-.26-1.73-1.83-2L52.49,254.8a1.72,1.72,0,0,0-2.18,1.26l-.83-.16Zm-3.12,45.91-.84,0,.41-10.72.84,0c0,1.11.36,1.66,2,1.73l15.19.6c2.79.11,4-2,4.09-4.88.1-2.56-1.25-4.39-3.65-4.48l-15.26-.6c-1.6-.07-2,.42-2.09,1.53l-.84,0,.4-10.27.84,0c0,1.11.47,1.63,2.07,1.69l15.57.61c1.61.06,3.25,0,3.76-.35,3.31,3.48,5.06,6.52,4.84,12.21s-2.16,9.42-5.8,12.62c-.48-.39-1.81-.57-3.72-.64l-15.68-.62C48.81,289.84,48.36,290.45,48.32,291.48Zm7.5,55.82-.79.16-3.67-17.72a18.11,18.11,0,0,0-.74-2.25l6.37-2.8.44.79a2.43,2.43,0,0,0-.86,2.84l1.9,9.14,4.53-.94-1.73-8.34c-.19-.89-.59-1.31-1.41-1.14l-.19-.93,7.6-1.58.19.93c-.79.16-1,.71-.8,1.6l1.73,8.34L74,334.24,72.09,325a2.44,2.44,0,0,0-2.19-2.29l.1-1,7.5.17a10.7,10.7,0,0,0,.14,2.76L81.25,342l-.83.17c-.23-1.09-1-1.48-2.28-1.21l-20.71,4.3A1.79,1.79,0,0,0,55.82,347.3Zm11.54,34.33-.79.29-3.63-10.11.79-.29c.38,1.05,1.1,1.36,2.61.82L72.88,370l-3.29-9.17-6.94,2.49a1.54,1.54,0,0,0-1.09,2.15l-.79.29-3.62-10.07.79-.28c.38,1,1.08,1.32,2.59.78l19.45-7c1.48-.53,1.95-1.14,1.54-2.26l.79-.28,3.62,10.07-.79.28c-.38-1-1.13-1.35-2.64-.81L75,358.89l3.29,9.17,7.51-2.7c1.48-.53,1.91-1.25,1.53-2.3l.79-.28,3.63,10.11-.79.28c-.36-1-1.13-1.35-2.64-.81l-19.85,7.12A1.6,1.6,0,0,0,67.36,381.63Zm33.93,11.48c-.53-1-1.35-1.15-2.77-.4l-16.13,8.57,3,5.53a2.16,2.16,0,0,0,2.39,1L88,409l-6.83,1.9a6.88,6.88,0,0,0-.79-2l-9.12-17.07a6.31,6.31,0,0,0-1-1.39l5.39-4.59.83.82a2,2,0,0,0-.58,2.41l3,5.64L95,386.16c1.42-.75,1.76-1.5,1.23-2.48l.74-.39,5,9.42Zm8.84-223.93-9.36,15.11-.72-.44c.59-.95.29-1.76-.82-2.45l-18-11.14a1.79,1.79,0,0,0-2.56.36L78,170.2l9.52-15.36a18.33,18.33,0,0,0,1-2.14l6.55,2.36-.23.88a2.43,2.43,0,0,0-2.57,1.46l-4.91,7.93,3.93,2.44,4.48-7.22c.48-.77.48-1.35-.24-1.79l.5-.81,6.6,4.09-.5.81c-.68-.42-1.2-.16-1.68.61L96,170.66l4.88,3,5-8a2.43,2.43,0,0,0,0-3.17l.78-.68,5.32,5.28A10.73,10.73,0,0,0,110.13,169.18Zm4.18-7.93c.65-.8.66-1.59-.58-2.61L97.43,145.3a1.66,1.66,0,0,0-2.53.07l-.65-.53c1.14-1.52,3.6-4.94,6.27-8.19,5.39-6.57,10.72-10.84,16.81-5.85a8.74,8.74,0,0,1,2.45,9.62,28.93,28.93,0,0,0,8.69,1.94,2.19,2.19,0,0,0,2.11-.94l.65.53-6.09,7.43a34.61,34.61,0,0,1-8.16-2.89c-.26.37-.73,1-1.22,1.61s-.94,1.09-1.34,1.51l4,3.29c1.24,1,2,.92,2.67.06l.65.53-6.8,8.29Zm5.52,212.1V209c0-12.15,6.6-18.37,6.6-18.37h44.33v6.12c-6.28,0-10.91,4.19-10.91,12.24V369.48c0,13.85,9.59,19,19.84,19,10.91,0,20.17-6.12,20.17-19V209c0-13,4.56-18.23,4.56-18.23,20.85,0,47-.15,47-.15v6.44c-6.61,0-10.91,4.19-10.91,10.63v192c0,5.8,4.3,10.31,10.91,10.31v6.12c-8.6,1-44.25,5.18-71.7,5.18-31.09,0-51.26-16.11-62.17-29.32C119.5,386.56,119.83,382,119.83,373.34Zm16.93,82.07-4.14,9.22-2.3-10.31-10.42-1.76,9-4.62-2.29-10.3,7.85,7.45,9-4.62-4.14,9.22,7.85,7.45Zm73.49,38.74a2.43,2.43,0,0,0-1.83-2.33l-8.56-3.71L198,492.35l7.8,3.38c.83.36,1.41.28,1.74-.49l.87.38-3.08,7.12-.87-.38c.32-.73,0-1.21-.85-1.57l-7.8-3.39-2.28,5.26,8.68,3.76a2.43,2.43,0,0,0,3.13-.47l.79.68-4.45,6a10.74,10.74,0,0,0-2.33-1.47L183,504.09l.33-.77c1,.44,1.79,0,2.31-1.17l8.4-19.39a1.79,1.79,0,0,0-.72-2.48l.32-.73,16.6,7.19a18,18,0,0,0,2.27.69l-1.38,6.82Zm25.28,8.56-1.22-.12a3.55,3.55,0,0,0-.9-2.21c-.78-.86-1.85-1.62-4.59-2.41-3-.88-4.42-.18-4.71.81s.65,2.06,4.64,5.18c3.58,2.79,6.18,5.82,4.93,10.11-1.41,4.84-5.47,7.39-13,5.18-2.5-.73-5.74-2.59-7-2.95a4.07,4.07,0,0,0-1.54-.17l1-8.82h1.51a5.8,5.8,0,0,0,.61,2.48c.87,1.45,2.31,2.7,5.88,3.75,3.37,1,4.93.36,5.33-1,.29-1-.27-1.87-5.13-5.72-4.14-3.23-5.74-6.13-4.79-9.39,1.37-4.69,6.26-7,13.6-4.86,1.9.55,4.22,1.91,5.29,2.22a4,4,0,0,0,1.49.2Zm29.86,4.81a2,2,0,0,0-1.58-1.91l-6.33-1-2.87,18c-.25,1.59.14,2.3,1.24,2.48l-.13.83-10.57-1.67.13-.83c1.1.17,1.74-.38,2-2l2.87-18-6.2-1a2.15,2.15,0,0,0-2.22,1.31l-1.09-.52,2.59-6.59a6.84,6.84,0,0,0,2,.56l19.14,3a6.33,6.33,0,0,0,1.71,0l.42,7.07Zm4.46,20.35c-1.81-.14-3.34-1.29-3.19-3.19a3.2,3.2,0,0,1,3.65-2.74,3.13,3.13,0,0,1,3.1,3.26C273.26,527.11,271.66,528,269.85,527.88Zm28.53.09,0-.84c1-.06,1.63-.55,1.52-2.38l-.89-16.1a21.76,21.76,0,0,1-5.6,1.31l-.23-4c1.68-.25,6.66-1.56,7.63-4.86l5.2-.29a6.84,6.84,0,0,0-.21,2.23L307,524.35c.1,1.76.79,2.25,1.82,2.19l0,.84ZM330,525c-2.72.48-6.32.76-7.13.9a6.32,6.32,0,0,0-1.55.47l-3.11-7,.85-.38c1.42,1.38,3.53,2,7.88,1.21,4.83-.85,7-3.78,6.43-7.26a16.54,16.54,0,0,1-6.51,2.54c-6.87,1.21-11.34-1.57-12.19-6.39-.93-5.27,2.26-10,10.31-11.4,8.45-1.49,13.86,2.57,15.34,11C342,518,337.2,523.69,330,525Zm33.45-8.06c-8.45,2.73-14.17-.6-16.84-8.86-2.85-8.84,1.53-15.57,9-18a62.45,62.45,0,0,1,6.15-1.51,6.4,6.4,0,0,0,1.49-.64l3.95,6.32-.77.57c-1.59-1.17-2.91-1.63-7.95,0-4.48,1.45-6.21,4.42-5.33,8a15.49,15.49,0,0,1,5.9-3.36c6.61-2.14,11.56-.64,13.3,4.74C374,509,370.92,514.48,363.45,516.89Zm30-12.32c-2.48,1.21-5.86,2.47-6.61,2.83a6.32,6.32,0,0,0-1.36.87l-4.91-5.85.72-.6c1.74.94,3.94.93,7.91-1,4.42-2.15,5.65-5.55,4.19-8.75a16.5,16.5,0,0,1-5.56,4.23c-6.27,3-11.33,1.59-13.47-2.8-2.34-4.81-.56-10.22,6.78-13.78,7.72-3.75,14-1.33,17.77,6.36C403,494.6,400,501.38,393.41,504.57ZM288.52,489a200,200,0,0,1-116.95-37.42l1.5-2.1a198.89,198.89,0,0,0,229,1.34l1.48,2.11A200.15,200.15,0,0,1,288.52,489Zm160.84-37.13-2.14,10.35L442.95,453l-10.38,1.91,7.73-7.57L436,438.2l9.06,4.47,7.73-7.58-2.12,10.33,9.06,4.47Zm-53.33-34c-27.45,0-61.69-1-70.29-1.93v-6.12c6.61,0,10.91-4.51,10.91-10.31v-192c0-6.44-4.3-10.63-10.91-10.63v-6.44c10.58-1,45.82-2.26,69.63-2.26,50.93,0,78.38,27.06,78.38,108.58C473.75,380.11,450.93,417.81,396,417.81Zm106.13-17.49c-.92,1.76-2.7,3.76-3.21,4.75a4,4,0,0,0-.48,1.42l-7.32-2.84.35-1.17a3.55,3.55,0,0,0,2.35-.45c1-.59,1.95-1.5,3.26-4,1.45-2.78,1-4.3.12-4.77s-2.15.23-6,3.53c-3.44,3-6.92,4.91-10.89,2.84-4.48-2.33-6.2-6.81-2.55-13.79,1.2-2.3,3.66-5.12,4.25-6.25a4,4,0,0,0,.47-1.48l8.47,2.69-.29,1.48a5.84,5.84,0,0,0-2.56.11c-1.59.57-3.1,1.73-4.82,5-1.62,3.11-1.32,4.76-.06,5.41.92.48,1.89.1,6.61-3.9,4-3.41,7.14-4.42,10.16-2.85C504.37,388.31,505.69,393.55,502.16,400.32ZM513,375l-.79-.29a.88.88,0,0,0-.59-1.27,6.17,6.17,0,0,0-1.9-.16l-21.76-.05c-1.67,0-2,.28-2.35,1.21l-.79-.29,3.84-10.55.79.29c-.37,1-.16,1.66.53,1.91a4,4,0,0,0,1,.09l.68,0a15.23,15.23,0,0,1,.95-4.4,15.71,15.71,0,0,1,2.07-3.9l-.59-.52a2.46,2.46,0,0,0-.81-.56c-.72-.26-1.19.14-1.49,1l-.79-.29,3.66-10,.79.29c-.35,1-.32,1.33,1,2.41l17.09,14.34a6.59,6.59,0,0,0,1.25.81.86.86,0,0,0,1.22-.57l.79.29Zm10.76-35.83-.82-.18c.21-1-.17-1.73-1.66-2.05l-17.93-3.9-2.09,9.53a2.33,2.33,0,0,0,1.13,2.7l-.51.9L495.1,343a8,8,0,0,0,.91-2.21L499.9,323l.82.18c-.23,1.05.21,1.74,1.7,2.06L523,329.75a1.69,1.69,0,0,0,2.18-1.22l.82.18Zm4.52-29.27-.84-.08c.09-1-.38-1.69-1.9-1.83l-18.27-1.7-.9,9.69a2.32,2.32,0,0,0,1.45,2.54l-.4,1-7.11-2.4a7.88,7.88,0,0,0,.64-2.3l1.67-18,.84.08c-.1,1.07.42,1.7,1.94,1.84l21,2a1.69,1.69,0,0,0,2-1.47l.84.08Z" transform="translate(-17.07 -16.9)"/><path class="cls-3" d="M403,221.27c-4.63,0-24,0-26,.32v163c2,.32,21.68.32,24,.32,21.17,0,31.09-24.81,31.09-88.28C432.08,237.06,419.51,221.27,403,221.27Z" transform="translate(-17.07 -16.9)"/><path class="cls-3" d="M326.33,503.14c-3.33.59-5.16,2.11-4.73,4.52s2.53,2.93,5.66,2.38a12.17,12.17,0,0,0,5.24-2.13C331.91,504.6,329.83,502.52,326.33,503.14Z" transform="translate(-17.07 -16.9)"/><path class="cls-3" d="M359.47,504.84a11.12,11.12,0,0,0-4.69,2.68c1,3.2,3.19,5.2,6.57,4.1,3.23-1,4.66-3,4-5C364.68,504.43,362.5,503.86,359.47,504.84Z" transform="translate(-17.07 -16.9)"/></svg>